<?xml version="1.0" encoding="UTF-8"?>
<svg width="1200pt" height="1200pt" version="1.1" viewBox="0 0 1200 1200" xmlns="http://www.w3.org/2000/svg">
 <g fill="none" stroke="#000" stroke-miterlimit="10">
  <path transform="matrix(12,0,0,12,2964,-4450.8)" d="m-157.7 465.4h-79.1c-2.0999 0-3.8001-1.6999-3.8001-3.8001v-79.1c0-2.0999 1.6999-3.8001 3.8001-3.8001h79.1c2.0999 0 3.8001 1.6999 3.8001 3.8001v79.1c-3.25e-4 2.1003-1.7002 3.8001-3.8001 3.8001z"/>
  <path transform="matrix(12,0,0,12,2964,-4450.8)" d="m-167.6 398.7c0 5.6331-4.5667 10.2-10.2 10.2-5.6331 0-10.2-4.5667-10.2-10.2 0-5.6335 4.5667-10.2 10.2-10.2 5.6335 0 10.2 4.5667 10.2 10.2"/>
  <path transform="matrix(12,0,0,12,2964,-4450.8)" d="m-240.6 444.1 26.2-22.1 23.3 22.1 10.7-8.5999 26.5 14.7"/>
 </g>
</svg>
